<?xml version="1.0" encoding="utf-8"?>
<!-- Generator: Adobe Illustrator 27.0.0, SVG Export Plug-In . SVG Version: 6.00 Build 0)  -->
<svg version="1.1" id="Calque_1" xmlns="http://www.w3.org/2000/svg" xmlns:xlink="http://www.w3.org/1999/xlink" x="0px" y="0px"
	 viewBox="0 0 1059 280" style="enable-background:new 0 0 1059.87 325.87;" xml:space="preserve">
<style type="text/css">
	.st0{fill:#56AE31;}
	.st1{fill:#575756;}
</style>
<path class="st0" d="M161.14,59.3c-60.26,0-109.12,48.85-109.12,109.12c0,59.06,46.92,107.15,105.51,109.05V191.5l-30.1-24.17
	c-2.51-2.01,3.6-9.62,6.11-7.61l0,0l23.98,19.26v-64.04c0-7.39,9.76-7.39,9.76,0v37.54l22.48-20.32c2.39-2.16,8.93,5.08,6.54,7.24
	l-29.02,26.23v111.72c57.4-3.19,102.96-50.74,102.96-108.94C270.26,108.16,221.4,59.3,161.14,59.3z M139.9,122.23
	c-0.87,0-1.53,0.65-1.96,1.96l-1.57,4.98c-1.31-0.7-2.57-1.05-3.8-1.05h-1.05l-21.08,19.24c-8.81,8.03-13.4,14.92-13.75,20.68h-0.26
	v0.26c0,0.96,2.25,3.73,6.74,8.31c4.5,4.58,9.36,8.71,14.6,12.37c5.24,3.67,8.75,6.15,10.54,7.46c1.79,1.31,3.53,2.77,5.24,4.39
	c1.7,1.62,3.4,3.65,5.11,6.09c1.7,2.44,2.55,4.23,2.55,5.37c0,1.57-0.52,2.36-1.57,2.36c-2.62,0-4.73-0.54-6.35-1.64
	c-1.61-1.09-3.64-2.68-6.09-4.78c-2.44-2.1-8.44-8.18-18-18.26c-9.56-10.08-19.44-18.74-29.65-25.99c-0.17-0.7-0.26-1.66-0.26-2.88
	c0-0.7,0.02-1.29,0.07-1.77c0.04-0.48,1.2-2.05,3.47-4.71c2.27-2.66,5.34-6.11,9.23-10.35c3.88-4.23,7.64-8.18,11.26-11.84
	c3.63-3.66,7.1-7.04,10.42-10.13s6.51-5.91,9.56-8.45c0.52-0.87,1.16-2.16,1.9-3.87c0.74-1.7,1.72-2.56,2.94-2.56
	c0.7,0,1.77,0.46,3.21,1.37c1.44,0.92,2.51,1.37,3.21,1.37c0.79,0,1.4-0.39,1.83-1.18c2.97,4.02,4.58,8.51,4.84,13.48
	C140.86,122.32,140.42,122.23,139.9,122.23z M233.59,138.28c-6.52,4.62-12.83,10.15-18.93,16.59c-6.1,6.43-9.93,10.32-11.49,11.66
	c-1.56,1.34-2.86,2.35-3.89,3.05c-1.03,0.7-2.38,1.04-4.05,1.04c-0.67,0-1-0.5-1-1.5c0-0.72,0.54-1.87,1.63-3.43
	c1.09-1.56,2.17-2.85,3.26-3.89c1.09-1.03,2.2-1.96,3.34-2.8c1.14-0.84,3.38-2.42,6.73-4.76c3.34-2.34,6.45-4.97,9.32-7.9
	c2.87-2.92,4.3-4.69,4.3-5.31v-0.17h-0.17c-0.22-3.68-3.15-8.08-8.77-13.2l-13.45-12.28h-0.67c-0.78,0-1.59,0.22-2.42,0.67l-1-3.18
	c-0.28-0.83-0.7-1.25-1.25-1.25c-0.33,0-0.61,0.06-0.84,0.17c0.17-3.18,1.2-6.04,3.09-8.61c0.28,0.5,0.67,0.75,1.17,0.75
	c0.44,0,1.13-0.29,2.05-0.88c0.92-0.59,1.6-0.88,2.05-0.88c0.78,0,1.4,0.54,1.88,1.63c0.47,1.09,0.88,1.91,1.21,2.47
	c1.95,1.62,3.98,3.42,6.1,5.39s4.34,4.13,6.65,6.47c2.31,2.34,4.71,4.86,7.19,7.56c2.48,2.7,4.44,4.9,5.89,6.6
	c1.45,1.7,2.19,2.7,2.21,3.01c0.03,0.31,0.04,0.68,0.04,1.13C233.76,137.22,233.7,137.84,233.59,138.28z"/>
</svg>
